{"title":"Mad.Max.Fury.Road.2015.TS.x264-MenaceIISociety","uid":12008098,"size":1380720934,"categoryP":"video","categoryS":"movies","magnet":"?xt=urn:btih:c24187762a35ee0b79de3200699041ac1ba4d0aa&amp;dn=Mad.Max.Fury.Road.2015.TS.x264-MenaceIISociety&amp;tr=udp%3A%2F%2Ftracker.openbittorrent.com%3A80&amp;tr=udp%3A%2F%2Fopen.demonii.com%3A1337&amp;tr=udp%3A%2F%2Ftracker.coppersurfer.tk%3A6969&amp;tr=udp%3A%2F%2Fexodus.desync.com%3A6969","seeders":13,"leechers":5,"uploader":"xxxlavalxxx","files":4,"time":1434021320,"description":" &lt;a href=&quot;http://extraimago.com/image/NXX&quot; rel=&quot;nofollow&quot; target=&quot;_NEW&quot;&gt;http://extraimago.com/image/NXX&lt;/a&gt;\n &lt;a href=&quot;\nhttp://www.imdb.com/title/tt1392190/&quot; rel=&quot;nofollow&quot; target=&quot;_NEW&quot;&gt;\nhttp://www.imdb.com/title/tt1392190/&lt;/a&gt;\n\n\nIn a stark desert landscape where humanity is broken, two rebels just might be able to restore order: Max, a man of action and of few words, and Furiosa, a woman of action who is looking to make it back to her childhood homeland.\n\nDirector: George Miller\nWriters: George Miller, Brendan McCarthy\nStars: Tom Hardy, Charlize Theron, Nicholas Hoult\nGenres: Action | Adventure | Sci-Fi | Thriller\nCountry: Australia | USA\nLanguage: English\n\n\nMad.Max.Fury.Road.2015.TS.x264-MenaceIISociety\n &lt;a href=&quot;\nhttp://www.imdb.com/title/tt1392190/&quot; rel=&quot;nofollow&quot; target=&quot;_NEW&quot;&gt;\nhttp://www.imdb.com/title/tt1392190/&lt;/a&gt;\nSource: 720p.x264-iNC (Original Source File)  /// Audio - SIMPLE [THANKS]\n\nGeneral\nComplete name: Mad.Max.Fury.Road.2015.TS.x264-MenaceIISociety.mkv\nFormat: Matroska\nFormat version: Version 2\nFile size: 1.27 GiB\nDuration: 1h 53mn\nOverall bit rate mode: Variable\nOverall bit rate: 1 590 Kbps\nEncoded date: UTC 2015-06-11 01:49:24\nWriting application: mkvmerge v7.9.0 ('Birds') 32bit\nWriting library: libebml v1.3.1 + libmatroska v1.4.2\n\nVideo\nID: 1\nFormat: AVC\nFormat/Info: Advanced Video Codec\nFormat profile: &lt;a class=&quot;__cf_email__&quot; href=&quot;/cdn-cgi/l/email-protection&quot; data-cfemail=&quot;8dc5e4eae5cdc1b9a3bc&quot;&gt;[email&amp;#160;protected]&lt;/a&gt;&lt;script data-cfhash='f9e31' type=&quot;text/javascript&quot;&gt;\n/* &lt;![CDATA[ */!function(){try{var t=&quot;currentScript&quot;in document?document.currentScript:function(){for(var t=document.getElementsByTagName(&quot;script&quot;),e=t.length;e--;)if(t[e].getAttribute(&quot;data-cfhash&quot;))return t[e]}();if(t&amp;&amp;t.previousSibling){var e,r,n,i,c=t.previousSibling,a=c.getAttribute(&quot;data-cfemail&quot;);if(a){for(e=&quot;&quot;,r=parseInt(a.substr(0,2),16),n=2;a.length-n;n+=2)i=parseInt(a.substr(n,2),16)^r,e+=String.fromCharCode(i);e=document.createTextNode(e),c.parentNode.replaceChild(e,c)}t.parentNode.removeChild(t);}}catch(u){}}()/* ]]&gt; */&lt;/script&gt;\nFormat settings, CABAC: Yes\nFormat settings, ReFrames: 3 frames\nCodec ID: V_MPEG4/ISO/AVC\nDuration: 1h 53mn\nBit rate mode: Variable\nBit rate: 1 396 Kbps\nMaximum bit rate: 40.0 Mbps\nWidth: 720 pixels\nHeight: 400 pixels\nDisplay aspect ratio: 16:9\nFrame rate mode: Constant\nFrame rate: 30.000 fps\nColor space: YUV\nChroma subsampling: 4:2:0\nBit depth: 8 bits\nScan type: Progressive\nBits/(Pixel*Frame): 0.162\nStream size: 1.09 GiB (86%)\nWriting library: x264 core 146 r2538 121396c\nEncoding settings: cabac=1 / ref=4 / deblock=1:-1:-1 / analyse=0x3:0x113 / me=umh / subme=9 / psy=1 / psy_rd=1.00:0.15 / mixed_ref=1 / me_range=18 / chroma_me=1 / trellis=2 / 8x8dct=1 / cqm=0 / deadzone=21,11 / fast_pskip=0 / chroma_qp_offset=-3 / threads=12 / lookahead_threads=1 / sliced_threads=0 / slices=4 / nr=0 / decimate=1 / interlaced=0 / bluray_compat=0 / constrained_intra=0 / bframes=3 / b_pyramid=1 / b_adapt=2 / b_bias=0 / direct=1 / weightb=1 / open_gop=0 / weightp=0 / keyint=29 / keyint_min=2 / scenecut=40 / intra_refresh=0 / rc_lookahead=29 / rc=2pass / mbtree=1 / bitrate=1396 / ratetol=1.0 / qcomp=0.60 / qpmin=10 / qpmax=51 / qpstep=4 / cplxblur=20.0 / qblur=0.5 / vbv_maxrate=40000 / vbv_bufsize=30000 / nal_hrd=vbr / filler=0 / ip_ratio=1.40 / aq=1:1.00\nDefault: Yes\nForced: No\nColor primaries: BT.709\nTransfer characteristics: BT.709\nMatrix coefficients: BT.709\n\nAudio\nID: 2\nFormat: AC-3\nFormat/Info: Audio Coding 3\nMode extension: CM (complete main)\nFormat settings, Endianness: Big\nCodec ID: A_AC3\nDuration: 1h 53mn\nBit rate mode: Constant\nBit rate: 192 Kbps\nChannel count: 2 channels\nChannel positions: Front: L R\nSampling rate: 44.1 KHz\nBit depth: 16 bits\nCompression mode: Lossy\nStream size: 157 MiB (12%)\nLanguage: English\nDefault: Yes\n\n &lt;a href=&quot;\nhttp://extraimago.com/image/jyr&quot; rel=&quot;nofollow&quot; target=&quot;_NEW&quot;&gt;\nhttp://extraimago.com/image/jyr&lt;/a&gt; &lt;a href=&quot;\nhttp://extraimago.com/image/jyG&quot; rel=&quot;nofollow&quot; target=&quot;_NEW&quot;&gt;\nhttp://extraimago.com/image/jyG&lt;/a&gt; &lt;a href=&quot;\nhttp://extraimago.com/image/jyP&quot; rel=&quot;nofollow&quot; target=&quot;_NEW&quot;&gt;\nhttp://extraimago.com/image/jyP&lt;/a&gt; &lt;a href=&quot;\nhttp://extraimago.com/image/jyX&quot; rel=&quot;nofollow&quot; target=&quot;_NEW&quot;&gt;\nhttp://extraimago.com/image/jyX&lt;/a&gt; &lt;a href=&quot;\nhttp://extraimago.com/image/jyg&quot; rel=&quot;nofollow&quot; target=&quot;_NEW&quot;&gt;\nhttp://extraimago.com/image/jyg&lt;/a&gt; &lt;a href=&quot;\nhttp://extraimago.com/image/jy5&quot; rel=&quot;nofollow&quot; target=&quot;_NEW&quot;&gt;\nhttp://extraimago.com/image/jy5&lt;/a&gt; &lt;a href=&quot;\nhttp://extraimago.com/image/jyD&quot; rel=&quot;nofollow&quot; target=&quot;_NEW&quot;&gt;\nhttp://extraimago.com/image/jyD&lt;/a&gt; &lt;a href=&quot;\nhttp://extraimago.com/image/jyF&quot; rel=&quot;nofollow&quot; target=&quot;_NEW&quot;&gt;\nhttp://extraimago.com/image/jyF&lt;/a&gt; &lt;a href=&quot;\nhttp://extraimago.com/image/jyH&quot; rel=&quot;nofollow&quot; target=&quot;_NEW&quot;&gt;\nhttp://extraimago.com/image/jyH&lt;/a&gt; &lt;a href=&quot;\nhttp://extraimago.com/image/jyk&quot; rel=&quot;nofollow&quot; target=&quot;_NEW&quot;&gt;\nhttp://extraimago.com/image/jyk&lt;/a&gt;","torrent":{"xt":"urn:btih:c24187762a35ee0b79de3200699041ac1ba4d0aa","amp;dn":"Mad.Max.Fury.Road.2015.TS.x264-MenaceIISociety","amp;tr":["udp%3A%2F%2Ftracker.openbittorrent.com%3A80","udp%3A%2F%2Fopen.demonii.com%3A1337","udp%3A%2F%2Ftracker.coppersurfer.tk%3A6969","udp%3A%2F%2Fexodus.desync.com%3A6969"],"infoHash":"c24187762a35ee0b79de3200699041ac1ba4d0aa","infoHashBuffer":{"type":"Buffer","data":[194,65,135,118,42,53,238,11,121,222,50,0,105,144,65,172,27,164,208,170]},"announce":[],"urlList":[]}}